<mxfile host="www.draw.io" modified="2020-01-02T11:33:37.429Z" agent="Mozilla/5.0 (Windows NT 6.1; Win64; x64) AppleWebKit/537.36 (KHTML, like Gecko) Chrome/79.0.3945.88 Safari/537.36" etag="XfflOGoC0pwFbn04KCRM" version="12.4.3" type="github" pages="1">
  <diagram id="9MN-6Ym-kLOUf6tvWToS" name="第 1 页">
    <mxGraphModel dx="1124" dy="572" grid="1" gridSize="10" guides="1" tooltips="1" connect="1" arrows="1" fold="1" page="1" pageScale="1" pageWidth="2339" pageHeight="3300" math="0" shadow="0">
      <root>
        <mxCell id="0"/>
        <mxCell id="1" parent="0"/>
        <mxCell id="dzB3Clg9ve9drLu7Sz4O-17" value="语言ID" style="fillColor=none;strokeColor=none;html=1;fontSize=11;fontStyle=0;align=left;fontColor=#596780;fontStyle=1;fontSize=11" parent="1" vertex="1">
          <mxGeometry x="50" y="202.5" width="60" height="20" as="geometry"/>
        </mxCell>
        <mxCell id="dzB3Clg9ve9drLu7Sz4O-18" value="98" style="rounded=1;arcSize=9;fillColor=#F7F8F9;align=left;spacingLeft=5;strokeColor=#DEE1E6;html=1;strokeWidth=2;fontSize=12" parent="1" vertex="1">
          <mxGeometry x="120" y="197.5" width="100" height="30" as="geometry"/>
        </mxCell>
        <mxCell id="dzB3Clg9ve9drLu7Sz4O-19" value="中文名" style="fillColor=none;strokeColor=none;html=1;fontSize=11;fontStyle=0;align=left;fontColor=#596780;fontStyle=1;fontSize=11" parent="1" vertex="1">
          <mxGeometry x="230" y="202.5" width="60" height="20" as="geometry"/>
        </mxCell>
        <mxCell id="dzB3Clg9ve9drLu7Sz4O-20" value="韩语" style="rounded=1;arcSize=9;fillColor=#F7F8F9;align=left;spacingLeft=5;strokeColor=#DEE1E6;html=1;strokeWidth=2;fontSize=12" parent="1" vertex="1">
          <mxGeometry x="300" y="197.5" width="100" height="30" as="geometry"/>
        </mxCell>
        <mxCell id="dzB3Clg9ve9drLu7Sz4O-21" value="区域" style="fillColor=none;strokeColor=none;html=1;fontSize=11;fontStyle=0;align=left;fontColor=#596780;fontStyle=1;fontSize=11" parent="1" vertex="1">
          <mxGeometry x="420" y="370" width="60" height="20" as="geometry"/>
        </mxCell>
        <mxCell id="dzB3Clg9ve9drLu7Sz4O-22" value="region" style="rounded=1;arcSize=9;fillColor=#F7F8F9;align=left;spacingLeft=5;strokeColor=#DEE1E6;html=1;strokeWidth=2;fontSize=12" parent="1" vertex="1">
          <mxGeometry x="490" y="365" width="100" height="30" as="geometry"/>
        </mxCell>
        <mxCell id="dzB3Clg9ve9drLu7Sz4O-23" value="版本号" style="fillColor=none;strokeColor=none;html=1;fontSize=11;fontStyle=0;align=left;fontColor=#596780;fontStyle=1;fontSize=11" parent="1" vertex="1">
          <mxGeometry x="50" y="265" width="60" height="20" as="geometry"/>
        </mxCell>
        <mxCell id="dzB3Clg9ve9drLu7Sz4O-24" value="11" style="rounded=1;arcSize=9;fillColor=#F7F8F9;align=left;spacingLeft=5;strokeColor=#DEE1E6;html=1;strokeWidth=2;fontSize=12" parent="1" vertex="1">
          <mxGeometry x="120" y="260" width="100" height="30" as="geometry"/>
        </mxCell>
        <mxCell id="dzB3Clg9ve9drLu7Sz4O-25" value="版本名称" style="fillColor=none;strokeColor=none;html=1;fontSize=11;fontStyle=0;align=left;fontColor=#596780;fontStyle=1;fontSize=11" parent="1" vertex="1">
          <mxGeometry x="230" y="265" width="60" height="20" as="geometry"/>
        </mxCell>
        <mxCell id="dzB3Clg9ve9drLu7Sz4O-26" value="V2.8" style="rounded=1;arcSize=9;fillColor=#F7F8F9;align=left;spacingLeft=5;strokeColor=#DEE1E6;html=1;strokeWidth=2;fontSize=12" parent="1" vertex="1">
          <mxGeometry x="300" y="260" width="100" height="30" as="geometry"/>
        </mxCell>
        <mxCell id="dzB3Clg9ve9drLu7Sz4O-27" value="选项" style="fillColor=none;strokeColor=none;html=1;fontSize=11;fontStyle=0;align=left;fontColor=#596780;fontStyle=1;fontSize=11" parent="1" vertex="1">
          <mxGeometry x="50" y="724" width="60" height="20" as="geometry"/>
        </mxCell>
        <mxCell id="dzB3Clg9ve9drLu7Sz4O-28" value="composingMode" style="rounded=1;arcSize=9;fillColor=#F7F8F9;align=left;spacingLeft=5;strokeColor=#DEE1E6;html=1;strokeWidth=2;fontSize=12" parent="1" vertex="1">
          <mxGeometry x="120" y="719" width="100" height="30" as="geometry"/>
        </mxCell>
        <mxCell id="dzB3Clg9ve9drLu7Sz4O-29" value="Code" style="fillColor=none;strokeColor=none;html=1;fontSize=11;fontStyle=0;align=left;fontColor=#596780;fontStyle=1;fontSize=11" parent="1" vertex="1">
          <mxGeometry x="50" y="315" width="60" height="20" as="geometry"/>
        </mxCell>
        <mxCell id="dzB3Clg9ve9drLu7Sz4O-30" value="ko" style="rounded=1;arcSize=9;fillColor=#F7F8F9;align=left;spacingLeft=5;strokeColor=#DEE1E6;html=1;strokeWidth=2;fontSize=12" parent="1" vertex="1">
          <mxGeometry x="120" y="310" width="100" height="30" as="geometry"/>
        </mxCell>
        <mxCell id="dzB3Clg9ve9drLu7Sz4O-31" value="显示名称" style="fillColor=none;strokeColor=none;html=1;fontSize=11;fontStyle=0;align=left;fontColor=#596780;fontStyle=1;fontSize=11" parent="1" vertex="1">
          <mxGeometry x="230" y="315" width="60" height="20" as="geometry"/>
        </mxCell>
        <mxCell id="dzB3Clg9ve9drLu7Sz4O-32" value="한국어" style="rounded=1;arcSize=9;fillColor=#F7F8F9;align=left;spacingLeft=5;strokeColor=#DEE1E6;html=1;strokeWidth=2;fontSize=12" parent="1" vertex="1">
          <mxGeometry x="300" y="310" width="100" height="30" as="geometry"/>
        </mxCell>
        <mxCell id="dzB3Clg9ve9drLu7Sz4O-33" value="切换名称" style="fillColor=none;strokeColor=none;html=1;fontSize=11;fontStyle=0;align=left;fontColor=#596780;fontStyle=1;fontSize=11" parent="1" vertex="1">
          <mxGeometry x="420" y="315" width="60" height="20" as="geometry"/>
        </mxCell>
        <mxCell id="dzB3Clg9ve9drLu7Sz4O-34" value="98" style="rounded=1;arcSize=9;fillColor=#F7F8F9;align=left;spacingLeft=5;strokeColor=#DEE1E6;html=1;strokeWidth=2;fontSize=12" parent="1" vertex="1">
          <mxGeometry x="490" y="310" width="100" height="30" as="geometry"/>
        </mxCell>
        <mxCell id="dzB3Clg9ve9drLu7Sz4O-35" value="token" style="fillColor=none;strokeColor=none;html=1;fontSize=11;fontStyle=0;align=left;fontColor=#596780;fontStyle=1;fontSize=11" parent="1" vertex="1">
          <mxGeometry x="50" y="365" width="60" height="20" as="geometry"/>
        </mxCell>
        <mxCell id="dzB3Clg9ve9drLu7Sz4O-36" value="ko" style="rounded=1;arcSize=9;fillColor=#F7F8F9;align=left;spacingLeft=5;strokeColor=#DEE1E6;html=1;strokeWidth=2;fontSize=12" parent="1" vertex="1">
          <mxGeometry x="120" y="360" width="100" height="30" as="geometry"/>
        </mxCell>
        <mxCell id="dzB3Clg9ve9drLu7Sz4O-37" value="候选个数" style="fillColor=none;strokeColor=none;html=1;fontSize=11;fontStyle=0;align=left;fontColor=#596780;fontStyle=1;fontSize=11" parent="1" vertex="1">
          <mxGeometry x="50" y="612.5" width="60" height="20" as="geometry"/>
        </mxCell>
        <mxCell id="dzB3Clg9ve9drLu7Sz4O-38" value="32" style="rounded=1;arcSize=9;fillColor=#F7F8F9;align=left;spacingLeft=5;strokeColor=#DEE1E6;html=1;strokeWidth=2;fontSize=12" parent="1" vertex="1">
          <mxGeometry x="120" y="607.5" width="100" height="30" as="geometry"/>
        </mxCell>
        <mxCell id="dzB3Clg9ve9drLu7Sz4O-39" value="字符集" style="fillColor=none;strokeColor=none;html=1;fontSize=11;fontStyle=0;align=left;fontColor=#596780;fontStyle=1;fontSize=11" parent="1" vertex="1">
          <mxGeometry x="50" y="784" width="60" height="20" as="geometry"/>
        </mxCell>
        <mxCell id="dzB3Clg9ve9drLu7Sz4O-40" value="ㄱㄲㄴㄷㄹㄸㅁㅃㅂㅅㅇ" style="rounded=1;arcSize=9;fillColor=#F7F8F9;align=left;spacingLeft=5;strokeColor=#DEE1E6;html=1;strokeWidth=2;fontSize=12" parent="1" vertex="1">
          <mxGeometry x="120" y="779" width="300" height="30" as="geometry"/>
        </mxCell>
        <mxCell id="dzB3Clg9ve9drLu7Sz4O-43" value="空格名称" style="fillColor=none;strokeColor=none;html=1;fontSize=11;fontStyle=0;align=left;fontColor=#596780;fontStyle=1;fontSize=11" parent="1" vertex="1">
          <mxGeometry x="230" y="367.5" width="60" height="20" as="geometry"/>
        </mxCell>
        <mxCell id="dzB3Clg9ve9drLu7Sz4O-44" value="한국어" style="rounded=1;arcSize=9;fillColor=#F7F8F9;align=left;spacingLeft=5;strokeColor=#DEE1E6;html=1;strokeWidth=2;fontSize=12" parent="1" vertex="1">
          <mxGeometry x="300" y="362.5" width="100" height="30" as="geometry"/>
        </mxCell>
        <mxCell id="dzB3Clg9ve9drLu7Sz4O-52" value="&lt;span style=&quot;color: rgb(89 , 103 , 128) ; font-size: 11px ; text-align: left&quot;&gt;语音基础信息设置&lt;/span&gt;" style="dashed=0;html=1;rounded=1;fillColor=#DFE1E6;strokeColor=#DFE1E6;fontSize=12;align=center;fontStyle=1;strokeWidth=2;fontColor=#42526E" parent="1" vertex="1">
          <mxGeometry x="50" y="130" width="110" height="30" as="geometry"/>
        </mxCell>
        <mxCell id="W4fFQJ_pMEOItKrzQJDj-1" value="语言基础设置" style="rounded=1;fillColor=#0065FF;strokeColor=none;html=1;fontColor=#ffffff;align=center;verticalAlign=middle;whiteSpace=wrap;fontSize=18;fontStyle=1;arcSize=50" parent="1" vertex="1">
          <mxGeometry x="260" y="20" width="410" height="40" as="geometry"/>
        </mxCell>
        <mxCell id="W4fFQJ_pMEOItKrzQJDj-2" value="Code" style="fillColor=none;strokeColor=none;html=1;fontSize=11;fontStyle=0;align=left;fontColor=#596780;fontStyle=1;fontSize=11" parent="1" vertex="1">
          <mxGeometry x="420" y="207.5" width="60" height="20" as="geometry"/>
        </mxCell>
        <mxCell id="W4fFQJ_pMEOItKrzQJDj-3" value="ko" style="rounded=1;arcSize=9;fillColor=#F7F8F9;align=left;spacingLeft=5;strokeColor=#DEE1E6;html=1;strokeWidth=2;fontSize=12" parent="1" vertex="1">
          <mxGeometry x="490" y="202.5" width="100" height="30" as="geometry"/>
        </mxCell>
        <mxCell id="W4fFQJ_pMEOItKrzQJDj-4" value="&lt;span style=&quot;color: rgb(89 , 103 , 128) ; font-size: 11px ; text-align: left&quot;&gt;内核配置&lt;/span&gt;" style="dashed=0;html=1;rounded=1;fillColor=#DFE1E6;strokeColor=#DFE1E6;fontSize=12;align=center;fontStyle=1;strokeWidth=2;fontColor=#42526E" parent="1" vertex="1">
          <mxGeometry x="50" y="669" width="110" height="30" as="geometry"/>
        </mxCell>
        <mxCell id="W4fFQJ_pMEOItKrzQJDj-5" value="设置项新建" style="rounded=1;fillColor=#0057D8;align=center;strokeColor=none;html=1;fontColor=#ffffff;fontSize=12" parent="1" vertex="1">
          <mxGeometry x="200" y="666" width="80" height="33" as="geometry"/>
        </mxCell>
        <mxCell id="W4fFQJ_pMEOItKrzQJDj-6" value="值" style="fillColor=none;strokeColor=none;html=1;fontSize=11;fontStyle=0;align=left;fontColor=#596780;fontStyle=1;fontSize=11" parent="1" vertex="1">
          <mxGeometry x="230" y="724" width="60" height="20" as="geometry"/>
        </mxCell>
        <mxCell id="W4fFQJ_pMEOItKrzQJDj-7" value="1" style="rounded=1;arcSize=9;fillColor=#F7F8F9;align=left;spacingLeft=5;strokeColor=#DEE1E6;html=1;strokeWidth=2;fontSize=12" parent="1" vertex="1">
          <mxGeometry x="300" y="719" width="100" height="30" as="geometry"/>
        </mxCell>
        <mxCell id="W4fFQJ_pMEOItKrzQJDj-8" value="删除" style="rounded=1;fillColor=#0057D8;align=center;strokeColor=none;html=1;fontColor=#ffffff;fontSize=12" parent="1" vertex="1">
          <mxGeometry x="447" y="1087.75" width="80" height="33" as="geometry"/>
        </mxCell>
        <mxCell id="W4fFQJ_pMEOItKrzQJDj-9" value="保存" style="rounded=1;fillColor=#0057D8;align=center;strokeColor=none;html=1;fontColor=#ffffff;fontSize=12" parent="1" vertex="1">
          <mxGeometry x="547" y="1089.25" width="80" height="33" as="geometry"/>
        </mxCell>
        <mxCell id="W4fFQJ_pMEOItKrzQJDj-10" value="切换显示" style="fillColor=none;strokeColor=none;html=1;fontSize=11;fontStyle=0;align=left;fontColor=#596780;fontStyle=1;fontSize=11" parent="1" vertex="1">
          <mxGeometry x="50" y="410" width="60" height="20" as="geometry"/>
        </mxCell>
        <mxCell id="W4fFQJ_pMEOItKrzQJDj-11" value="한" style="rounded=1;arcSize=9;fillColor=#F7F8F9;align=left;spacingLeft=5;strokeColor=#DEE1E6;html=1;strokeWidth=2;fontSize=12" parent="1" vertex="1">
          <mxGeometry x="120" y="405" width="100" height="30" as="geometry"/>
        </mxCell>
        <mxCell id="W4fFQJ_pMEOItKrzQJDj-12" value="键盘符号列表" style="fillColor=none;strokeColor=none;html=1;fontSize=11;fontStyle=0;align=center;fontColor=#596780;fontStyle=1;fontSize=11" parent="1" vertex="1">
          <mxGeometry x="40" y="547.5" width="60" height="20" as="geometry"/>
        </mxCell>
        <mxCell id="W4fFQJ_pMEOItKrzQJDj-13" value="&quot;,&quot;,&quot;.&quot;,&quot;?&quot;,&quot;~&quot;,&quot;!&quot;,&quot;:&quot;,&quot;;&quot;,&quot;-&quot;,&quot;@&quot;" style="rounded=1;arcSize=9;fillColor=#F7F8F9;align=left;spacingLeft=5;strokeColor=#DEE1E6;html=1;strokeWidth=2;fontSize=12" parent="1" vertex="1">
          <mxGeometry x="120" y="540" width="340" height="35" as="geometry"/>
        </mxCell>
        <mxCell id="qDUdfZj89LBZSTm4KEdZ-1" value="键盘切换图片" style="fillColor=none;strokeColor=none;html=1;fontSize=11;fontStyle=0;align=left;fontColor=#596780;fontStyle=1;fontSize=11" vertex="1" parent="1">
          <mxGeometry x="40" y="451.6" width="60" height="20" as="geometry"/>
        </mxCell>
        <mxCell id="qDUdfZj89LBZSTm4KEdZ-2" value="&lt;span lang=&quot;EN-US&quot; style=&quot;font-size: 12.0pt&quot;&gt;xxxx.png&lt;/span&gt;" style="rounded=1;arcSize=9;fillColor=#F7F8F9;align=left;spacingLeft=5;strokeColor=#DEE1E6;html=1;strokeWidth=2;fontSize=12" vertex="1" parent="1">
          <mxGeometry x="120" y="451.6" width="100" height="30" as="geometry"/>
        </mxCell>
        <mxCell id="qDUdfZj89LBZSTm4KEdZ-3" value="选择" style="rounded=1;fillColor=#0057D8;align=center;strokeColor=none;html=1;fontColor=#ffffff;fontSize=12" vertex="1" parent="1">
          <mxGeometry x="247" y="450.0000000000001" width="86" height="33" as="geometry"/>
        </mxCell>
        <mxCell id="qDUdfZj89LBZSTm4KEdZ-4" value="&lt;font style=&quot;font-size: 11px&quot;&gt;IOS: 字段&lt;br&gt;&lt;span lang=&quot;EN-US&quot;&gt;KEYBOARD_SWITCH_IMAGE&lt;br&gt;&lt;/span&gt;&lt;/font&gt;KEYBOARD_SWITCH_IMAGE_SELECTED" style="rounded=1;arcSize=3;fillColor=#ffffff;strokeColor=#DFE1E5;strokeWidth=1;shadow=1;align=left;html=1;whiteSpace=wrap;spacingLeft=20;spacingRight=20;fontSize=12" vertex="1" parent="1">
          <mxGeometry x="730" y="405" width="270" height="105" as="geometry"/>
        </mxCell>
        <mxCell id="qDUdfZj89LBZSTm4KEdZ-6" value="内核脚本名称" style="fillColor=none;strokeColor=none;html=1;fontSize=11;fontStyle=0;align=left;fontColor=#596780;fontStyle=1;fontSize=11" vertex="1" parent="1">
          <mxGeometry x="30" y="495" width="60" height="20" as="geometry"/>
        </mxCell>
        <mxCell id="qDUdfZj89LBZSTm4KEdZ-7" value="Hang" style="rounded=1;arcSize=9;fillColor=#F7F8F9;align=left;spacingLeft=5;strokeColor=#DEE1E6;html=1;strokeWidth=2;fontSize=12" vertex="1" parent="1">
          <mxGeometry x="120" y="490" width="100" height="30" as="geometry"/>
        </mxCell>
        <mxCell id="qDUdfZj89LBZSTm4KEdZ-8" value="&lt;span style=&quot;color: rgb(89 , 103 , 128) ; font-size: 11px ; text-align: left&quot;&gt;键盘配置&lt;/span&gt;" style="dashed=0;html=1;rounded=1;fillColor=#DFE1E6;strokeColor=#DFE1E6;fontSize=12;align=center;fontStyle=1;strokeWidth=2;fontColor=#42526E" vertex="1" parent="1">
          <mxGeometry x="50" y="820" width="110" height="30" as="geometry"/>
        </mxCell>
        <mxCell id="qDUdfZj89LBZSTm4KEdZ-9" value="内核类型" style="fillColor=none;strokeColor=none;html=1;fontSize=11;fontStyle=0;align=left;fontColor=#596780;fontStyle=1;fontSize=11" vertex="1" parent="1">
          <mxGeometry x="50" y="875" width="60" height="20" as="geometry"/>
        </mxCell>
        <mxCell id="qDUdfZj89LBZSTm4KEdZ-10" value="0" style="rounded=1;arcSize=9;fillColor=#F7F8F9;align=left;spacingLeft=5;strokeColor=#DEE1E6;html=1;strokeWidth=2;fontSize=12" vertex="1" parent="1">
          <mxGeometry x="140" y="865" width="100" height="30" as="geometry"/>
        </mxCell>
        <mxCell id="qDUdfZj89LBZSTm4KEdZ-11" value="默认键盘类型" style="fillColor=none;strokeColor=none;html=1;fontSize=11;fontStyle=0;align=left;fontColor=#596780;fontStyle=1;fontSize=11" vertex="1" parent="1">
          <mxGeometry x="40" y="925" width="60" height="20" as="geometry"/>
        </mxCell>
        <mxCell id="qDUdfZj89LBZSTm4KEdZ-12" value="0" style="rounded=1;arcSize=9;fillColor=#F7F8F9;align=left;spacingLeft=5;strokeColor=#DEE1E6;html=1;strokeWidth=2;fontSize=12" vertex="1" parent="1">
          <mxGeometry x="140" y="915" width="100" height="30" as="geometry"/>
        </mxCell>
        <mxCell id="qDUdfZj89LBZSTm4KEdZ-13" value="键盘类型列表" style="fillColor=none;strokeColor=none;html=1;fontSize=11;fontStyle=0;align=left;fontColor=#596780;fontStyle=1;fontSize=11" vertex="1" parent="1">
          <mxGeometry x="40" y="975" width="60" height="20" as="geometry"/>
        </mxCell>
        <mxCell id="qDUdfZj89LBZSTm4KEdZ-14" value="0,1,2,3" style="rounded=1;arcSize=9;fillColor=#F7F8F9;align=left;spacingLeft=5;strokeColor=#DEE1E6;html=1;strokeWidth=2;fontSize=12" vertex="1" parent="1">
          <mxGeometry x="140" y="965" width="100" height="30" as="geometry"/>
        </mxCell>
        <mxCell id="qDUdfZj89LBZSTm4KEdZ-15" value="不稳定键盘列表" style="fillColor=none;strokeColor=none;html=1;fontSize=11;fontStyle=0;align=left;fontColor=#596780;fontStyle=1;fontSize=11" vertex="1" parent="1">
          <mxGeometry x="260" y="975" width="60" height="20" as="geometry"/>
        </mxCell>
        <mxCell id="qDUdfZj89LBZSTm4KEdZ-16" value="1,2" style="rounded=1;arcSize=9;fillColor=#F7F8F9;align=left;spacingLeft=5;strokeColor=#DEE1E6;html=1;strokeWidth=2;fontSize=12" vertex="1" parent="1">
          <mxGeometry x="360" y="965" width="100" height="30" as="geometry"/>
        </mxCell>
        <mxCell id="qDUdfZj89LBZSTm4KEdZ-17" value="字母键盘类型" style="fillColor=none;strokeColor=none;html=1;fontSize=11;fontStyle=0;align=left;fontColor=#596780;fontStyle=1;fontSize=11" vertex="1" parent="1">
          <mxGeometry x="260" y="925" width="60" height="20" as="geometry"/>
        </mxCell>
        <mxCell id="qDUdfZj89LBZSTm4KEdZ-18" value="0" style="rounded=1;arcSize=9;fillColor=#F7F8F9;align=left;spacingLeft=5;strokeColor=#DEE1E6;html=1;strokeWidth=2;fontSize=12" vertex="1" parent="1">
          <mxGeometry x="360" y="915" width="100" height="30" as="geometry"/>
        </mxCell>
        <mxCell id="qDUdfZj89LBZSTm4KEdZ-19" value="符号键盘类型" style="fillColor=none;strokeColor=none;html=1;fontSize=11;fontStyle=0;align=left;fontColor=#596780;fontStyle=1;fontSize=11" vertex="1" parent="1">
          <mxGeometry x="490" y="925" width="60" height="20" as="geometry"/>
        </mxCell>
        <mxCell id="qDUdfZj89LBZSTm4KEdZ-20" value="1" style="rounded=1;arcSize=9;fillColor=#F7F8F9;align=left;spacingLeft=5;strokeColor=#DEE1E6;html=1;strokeWidth=2;fontSize=12" vertex="1" parent="1">
          <mxGeometry x="590" y="915" width="100" height="30" as="geometry"/>
        </mxCell>
        <mxCell id="qDUdfZj89LBZSTm4KEdZ-21" value="&lt;span style=&quot;color: rgb(89 , 103 , 128) ; font-size: 11px ; text-align: left&quot;&gt;键盘列表配置&lt;/span&gt;" style="dashed=0;html=1;rounded=1;fillColor=#DFE1E6;strokeColor=#DFE1E6;fontSize=12;align=center;fontStyle=1;strokeWidth=2;fontColor=#42526E" vertex="1" parent="1">
          <mxGeometry x="40" y="1030" width="110" height="30" as="geometry"/>
        </mxCell>
        <mxCell id="qDUdfZj89LBZSTm4KEdZ-22" value="新增" style="rounded=1;fillColor=#0057D8;align=center;strokeColor=none;html=1;fontColor=#ffffff;fontSize=12" vertex="1" parent="1">
          <mxGeometry x="210" y="1028.5" width="80" height="33" as="geometry"/>
        </mxCell>
        <mxCell id="qDUdfZj89LBZSTm4KEdZ-23" value="键盘类型" style="fillColor=none;strokeColor=none;html=1;fontSize=11;fontStyle=0;align=left;fontColor=#596780;fontStyle=1;fontSize=11" vertex="1" parent="1">
          <mxGeometry x="65" y="1095" width="60" height="20" as="geometry"/>
        </mxCell>
        <mxCell id="qDUdfZj89LBZSTm4KEdZ-24" value="0" style="rounded=1;arcSize=9;fillColor=#F7F8F9;align=left;spacingLeft=5;strokeColor=#DEE1E6;html=1;strokeWidth=2;fontSize=12" vertex="1" parent="1">
          <mxGeometry x="135" y="1090" width="100" height="30" as="geometry"/>
        </mxCell>
        <mxCell id="qDUdfZj89LBZSTm4KEdZ-25" value="键盘名称" style="fillColor=none;strokeColor=none;html=1;fontSize=11;fontStyle=0;align=center;fontColor=#596780;fontStyle=1;fontSize=11" vertex="1" parent="1">
          <mxGeometry x="245" y="1095" width="60" height="20" as="geometry"/>
        </mxCell>
        <mxCell id="qDUdfZj89LBZSTm4KEdZ-26" value="Full Key" style="rounded=1;arcSize=9;fillColor=#F7F8F9;align=left;spacingLeft=5;strokeColor=#DEE1E6;html=1;strokeWidth=2;fontSize=12" vertex="1" parent="1">
          <mxGeometry x="315" y="1090" width="100" height="30" as="geometry"/>
        </mxCell>
        <mxCell id="qDUdfZj89LBZSTm4KEdZ-27" value="删除" style="rounded=1;fillColor=#0057D8;align=center;strokeColor=none;html=1;fontColor=#ffffff;fontSize=12" vertex="1" parent="1">
          <mxGeometry x="447" y="1150" width="80" height="33" as="geometry"/>
        </mxCell>
        <mxCell id="qDUdfZj89LBZSTm4KEdZ-28" value="保存" style="rounded=1;fillColor=#0057D8;align=center;strokeColor=none;html=1;fontColor=#ffffff;fontSize=12" vertex="1" parent="1">
          <mxGeometry x="547" y="1151.5" width="80" height="33" as="geometry"/>
        </mxCell>
        <mxCell id="qDUdfZj89LBZSTm4KEdZ-29" value="键盘类型" style="fillColor=none;strokeColor=none;html=1;fontSize=11;fontStyle=0;align=left;fontColor=#596780;fontStyle=1;fontSize=11" vertex="1" parent="1">
          <mxGeometry x="65" y="1157.25" width="60" height="20" as="geometry"/>
        </mxCell>
        <mxCell id="qDUdfZj89LBZSTm4KEdZ-30" value="3" style="rounded=1;arcSize=9;fillColor=#F7F8F9;align=left;spacingLeft=5;strokeColor=#DEE1E6;html=1;strokeWidth=2;fontSize=12" vertex="1" parent="1">
          <mxGeometry x="135" y="1152.25" width="100" height="30" as="geometry"/>
        </mxCell>
        <mxCell id="qDUdfZj89LBZSTm4KEdZ-31" value="键盘名称" style="fillColor=none;strokeColor=none;html=1;fontSize=11;fontStyle=0;align=center;fontColor=#596780;fontStyle=1;fontSize=11" vertex="1" parent="1">
          <mxGeometry x="245" y="1157.25" width="60" height="20" as="geometry"/>
        </mxCell>
        <mxCell id="qDUdfZj89LBZSTm4KEdZ-32" value="10 Key" style="rounded=1;arcSize=9;fillColor=#F7F8F9;align=left;spacingLeft=5;strokeColor=#DEE1E6;html=1;strokeWidth=2;fontSize=12" vertex="1" parent="1">
          <mxGeometry x="315" y="1152.25" width="100" height="30" as="geometry"/>
        </mxCell>
        <mxCell id="qDUdfZj89LBZSTm4KEdZ-33" value="默认内核类型" style="fillColor=none;strokeColor=none;html=1;fontSize=11;fontStyle=0;align=left;fontColor=#596780;fontStyle=1;fontSize=11" vertex="1" parent="1">
          <mxGeometry x="270" y="875" width="60" height="20" as="geometry"/>
        </mxCell>
        <mxCell id="qDUdfZj89LBZSTm4KEdZ-34" value="0" style="rounded=1;arcSize=9;fillColor=#F7F8F9;align=left;spacingLeft=5;strokeColor=#DEE1E6;html=1;strokeWidth=2;fontSize=12" vertex="1" parent="1">
          <mxGeometry x="360" y="865" width="100" height="30" as="geometry"/>
        </mxCell>
        <mxCell id="qDUdfZj89LBZSTm4KEdZ-35" value="&lt;span lang=&quot;EN-US&quot; style=&quot;font-size: 12.0pt&quot;&gt;x_selected.png&lt;/span&gt;" style="rounded=1;arcSize=9;fillColor=#F7F8F9;align=left;spacingLeft=5;strokeColor=#DEE1E6;html=1;strokeWidth=2;fontSize=12" vertex="1" parent="1">
          <mxGeometry x="440" y="446.70000000000005" width="100" height="30" as="geometry"/>
        </mxCell>
        <mxCell id="qDUdfZj89LBZSTm4KEdZ-36" value="选择" style="rounded=1;fillColor=#0057D8;align=center;strokeColor=none;html=1;fontColor=#ffffff;fontSize=12" vertex="1" parent="1">
          <mxGeometry x="567" y="445.10000000000014" width="86" height="33" as="geometry"/>
        </mxCell>
        <mxCell id="qDUdfZj89LBZSTm4KEdZ-37" value="键盘切换选中图片" style="fillColor=none;strokeColor=none;html=1;fontSize=11;fontStyle=0;align=left;fontColor=#596780;fontStyle=1;fontSize=11" vertex="1" parent="1">
          <mxGeometry x="340" y="455.5" width="60" height="20" as="geometry"/>
        </mxCell>
      </root>
    </mxGraphModel>
  </diagram>
</mxfile>
